<svg xmlns="http://www.w3.org/2000/svg" viewBox="0 0 123.16 125.61"><defs><style>.cls-1{font-size:22.1px;font-family:BigJohn, Big John;}.cls-1,.cls-3,.cls-4{fill:#1d1d1b;}.cls-2,.cls-3{font-family:SlimJoe, Slim Joe;}.cls-3{font-size:16.57px;}.cls-4{stroke:#1d1d1b;stroke-miterlimit:10;stroke-width:0.5px;}.cls-5{fill:#43b29d;}.cls-6{fill:#7f4996;}.cls-7{fill:#263942;opacity:0.9;}</style></defs><title>Element 1</title><g id="Ebene_2" data-name="Ebene 2"><g id="Ebene_1-2" data-name="Ebene 1"><text class="cls-1" transform="translate(0 94.35) scale(0.99 1)">big<tspan class="cls-2" x="42" y="0">GIS</tspan></text><text class="cls-3" transform="translate(82.22 117.28) scale(0.99 1)">dev</text><line class="cls-4" x1="91.72" y1="75.33" x2="69.94" y2="124.47"/><path class="cls-5" d="M34.46,0H0V34H34.46c6.62,0,12-7.61,12-17S41.08,0,34.46,0Z"/><path class="cls-6" d="M34.46,25.74H0v34H34.46c6.62,0,12-7.61,12-17S41.08,25.74,34.46,25.74Z"/><path class="cls-7" d="M42.28,29.88a10.2,10.2,0,0,0-7.82-4.14H0V34H34.46A10.2,10.2,0,0,0,42.28,29.88Z"/><path class="cls-5" d="M72.25,8.78a29.79,29.79,0,0,0,.1,42.13l42-42.23A29.79,29.79,0,0,0,72.25,8.78Z"/><path class="cls-6" d="M93.44,59.76a29.79,29.79,0,0,0,29.72-29.86L63.58,30A29.79,29.79,0,0,0,93.44,59.76Z"/><path class="cls-7" d="M72.35,50.9,93.18,30,63.58,30A29.69,29.69,0,0,0,72.35,50.9Z"/></g></g></svg>
